<mxfile host="app.diagrams.net" modified="2022-10-02T04:45:59.370Z" agent="5.0 (Windows NT 10.0; Win64; x64) AppleWebKit/537.36 (KHTML, like Gecko) Chrome/106.0.0.0 Safari/537.36" etag="ts3iRDjFveSn373gIH45" version="20.3.6" type="github">
  <diagram id="wVDX0qX5H8Pdd9pAw0MN" name="Página-1">
    <mxGraphModel dx="1534" dy="793" grid="1" gridSize="10" guides="1" tooltips="1" connect="1" arrows="1" fold="1" page="1" pageScale="1" pageWidth="850" pageHeight="1100" math="0" shadow="0">
      <root>
        <mxCell id="0" />
        <mxCell id="1" parent="0" />
        <mxCell id="bGXl5wLvbpkSmcmILKYW-4" value="" style="edgeStyle=orthogonalEdgeStyle;rounded=0;orthogonalLoop=1;jettySize=auto;html=1;" parent="1" source="bGXl5wLvbpkSmcmILKYW-2" target="bGXl5wLvbpkSmcmILKYW-3" edge="1">
          <mxGeometry relative="1" as="geometry" />
        </mxCell>
        <mxCell id="bGXl5wLvbpkSmcmILKYW-2" value="Inicio" style="ellipse;whiteSpace=wrap;html=1;fillColor=#d5e8d4;gradientColor=#97d077;strokeColor=#82b366;" parent="1" vertex="1">
          <mxGeometry x="190" width="60" height="40" as="geometry" />
        </mxCell>
        <mxCell id="bGXl5wLvbpkSmcmILKYW-8" value="" style="edgeStyle=orthogonalEdgeStyle;rounded=0;orthogonalLoop=1;jettySize=auto;html=1;" parent="1" source="bGXl5wLvbpkSmcmILKYW-3" target="bGXl5wLvbpkSmcmILKYW-7" edge="1">
          <mxGeometry relative="1" as="geometry" />
        </mxCell>
        <mxCell id="bGXl5wLvbpkSmcmILKYW-3" value="num(int)" style="whiteSpace=wrap;html=1;fillColor=#fff2cc;gradientColor=#ffd966;strokeColor=#d6b656;" parent="1" vertex="1">
          <mxGeometry x="180" y="60" width="80" height="40" as="geometry" />
        </mxCell>
        <mxCell id="bGXl5wLvbpkSmcmILKYW-10" value="" style="edgeStyle=orthogonalEdgeStyle;rounded=0;orthogonalLoop=1;jettySize=auto;html=1;" parent="1" source="bGXl5wLvbpkSmcmILKYW-7" target="bGXl5wLvbpkSmcmILKYW-9" edge="1">
          <mxGeometry relative="1" as="geometry" />
        </mxCell>
        <mxCell id="bGXl5wLvbpkSmcmILKYW-7" value="num" style="shape=parallelogram;perimeter=parallelogramPerimeter;whiteSpace=wrap;html=1;fixedSize=1;fillColor=#f8cecc;gradientColor=#ea6b66;strokeColor=#b85450;" parent="1" vertex="1">
          <mxGeometry x="170" y="130" width="100" height="40" as="geometry" />
        </mxCell>
        <mxCell id="bGXl5wLvbpkSmcmILKYW-12" value="" style="edgeStyle=orthogonalEdgeStyle;rounded=0;orthogonalLoop=1;jettySize=auto;html=1;" parent="1" source="bGXl5wLvbpkSmcmILKYW-9" target="bGXl5wLvbpkSmcmILKYW-11" edge="1">
          <mxGeometry relative="1" as="geometry">
            <Array as="points">
              <mxPoint x="340" y="270" />
            </Array>
          </mxGeometry>
        </mxCell>
        <mxCell id="bGXl5wLvbpkSmcmILKYW-19" value="" style="edgeStyle=orthogonalEdgeStyle;rounded=0;orthogonalLoop=1;jettySize=auto;html=1;" parent="1" source="bGXl5wLvbpkSmcmILKYW-9" target="bGXl5wLvbpkSmcmILKYW-18" edge="1">
          <mxGeometry relative="1" as="geometry" />
        </mxCell>
        <mxCell id="bGXl5wLvbpkSmcmILKYW-33" value="si" style="edgeLabel;html=1;align=center;verticalAlign=middle;resizable=0;points=[];fontSize=20;" parent="bGXl5wLvbpkSmcmILKYW-19" vertex="1" connectable="0">
          <mxGeometry x="-0.3562" relative="1" as="geometry">
            <mxPoint x="215" as="offset" />
          </mxGeometry>
        </mxCell>
        <mxCell id="8ZWr5Q-1SSps7I3pL4Q0-1" value="no" style="edgeLabel;html=1;align=center;verticalAlign=middle;resizable=0;points=[];fontSize=19;" vertex="1" connectable="0" parent="bGXl5wLvbpkSmcmILKYW-19">
          <mxGeometry x="-0.2545" y="3" relative="1" as="geometry">
            <mxPoint x="11" y="-3" as="offset" />
          </mxGeometry>
        </mxCell>
        <mxCell id="bGXl5wLvbpkSmcmILKYW-9" value="num==0" style="rhombus;whiteSpace=wrap;html=1;fillColor=#e6d0de;gradientColor=#d5739d;strokeColor=#996185;" parent="1" vertex="1">
          <mxGeometry x="140" y="230" width="160" height="80" as="geometry" />
        </mxCell>
        <mxCell id="8ZWr5Q-1SSps7I3pL4Q0-2" style="edgeStyle=orthogonalEdgeStyle;rounded=0;orthogonalLoop=1;jettySize=auto;html=1;entryX=0.5;entryY=0;entryDx=0;entryDy=0;fontSize=19;" edge="1" parent="1" source="bGXl5wLvbpkSmcmILKYW-11" target="bGXl5wLvbpkSmcmILKYW-28">
          <mxGeometry relative="1" as="geometry">
            <Array as="points">
              <mxPoint x="340" y="560" />
              <mxPoint x="225" y="560" />
            </Array>
          </mxGeometry>
        </mxCell>
        <mxCell id="bGXl5wLvbpkSmcmILKYW-11" value="&quot;El número es 0&quot;" style="shape=document;whiteSpace=wrap;html=1;boundedLbl=1;fillColor=#dae8fc;gradientColor=#7ea6e0;strokeColor=#6c8ebf;" parent="1" vertex="1">
          <mxGeometry x="280" y="440" width="120" height="80" as="geometry" />
        </mxCell>
        <mxCell id="bGXl5wLvbpkSmcmILKYW-21" value="" style="edgeStyle=orthogonalEdgeStyle;rounded=0;orthogonalLoop=1;jettySize=auto;html=1;" parent="1" source="bGXl5wLvbpkSmcmILKYW-18" target="bGXl5wLvbpkSmcmILKYW-20" edge="1">
          <mxGeometry relative="1" as="geometry">
            <Array as="points">
              <mxPoint x="165" y="370" />
            </Array>
          </mxGeometry>
        </mxCell>
        <mxCell id="bGXl5wLvbpkSmcmILKYW-34" value="si" style="edgeLabel;html=1;align=center;verticalAlign=middle;resizable=0;points=[];fontSize=20;" parent="bGXl5wLvbpkSmcmILKYW-21" vertex="1" connectable="0">
          <mxGeometry x="-0.0778" relative="1" as="geometry">
            <mxPoint x="-20" y="-18" as="offset" />
          </mxGeometry>
        </mxCell>
        <mxCell id="bGXl5wLvbpkSmcmILKYW-23" value="" style="edgeStyle=orthogonalEdgeStyle;rounded=0;orthogonalLoop=1;jettySize=auto;html=1;" parent="1" source="bGXl5wLvbpkSmcmILKYW-18" target="bGXl5wLvbpkSmcmILKYW-22" edge="1">
          <mxGeometry relative="1" as="geometry" />
        </mxCell>
        <mxCell id="bGXl5wLvbpkSmcmILKYW-35" value="no" style="edgeLabel;html=1;align=center;verticalAlign=middle;resizable=0;points=[];fontSize=20;" parent="bGXl5wLvbpkSmcmILKYW-23" vertex="1" connectable="0">
          <mxGeometry x="-0.2757" relative="1" as="geometry">
            <mxPoint x="21" y="-5" as="offset" />
          </mxGeometry>
        </mxCell>
        <mxCell id="bGXl5wLvbpkSmcmILKYW-18" value="num&amp;gt;0" style="rhombus;whiteSpace=wrap;html=1;fillColor=#e6d0de;gradientColor=#d5739d;strokeColor=#996185;" parent="1" vertex="1">
          <mxGeometry x="50" y="330" width="80" height="80" as="geometry" />
        </mxCell>
        <mxCell id="8ZWr5Q-1SSps7I3pL4Q0-3" style="edgeStyle=orthogonalEdgeStyle;rounded=0;orthogonalLoop=1;jettySize=auto;html=1;entryX=0.5;entryY=0;entryDx=0;entryDy=0;fontSize=19;" edge="1" parent="1" source="bGXl5wLvbpkSmcmILKYW-20" target="bGXl5wLvbpkSmcmILKYW-28">
          <mxGeometry relative="1" as="geometry">
            <Array as="points">
              <mxPoint x="165" y="560" />
              <mxPoint x="225" y="560" />
            </Array>
          </mxGeometry>
        </mxCell>
        <mxCell id="bGXl5wLvbpkSmcmILKYW-20" value="&quot;El número es positivo&quot;" style="shape=document;whiteSpace=wrap;html=1;boundedLbl=1;fillColor=#dae8fc;gradientColor=#7ea6e0;strokeColor=#6c8ebf;" parent="1" vertex="1">
          <mxGeometry x="105" y="450" width="120" height="80" as="geometry" />
        </mxCell>
        <mxCell id="8ZWr5Q-1SSps7I3pL4Q0-4" style="edgeStyle=orthogonalEdgeStyle;rounded=0;orthogonalLoop=1;jettySize=auto;html=1;entryX=0.5;entryY=0;entryDx=0;entryDy=0;fontSize=19;" edge="1" parent="1" source="bGXl5wLvbpkSmcmILKYW-22" target="bGXl5wLvbpkSmcmILKYW-28">
          <mxGeometry relative="1" as="geometry">
            <Array as="points">
              <mxPoint x="-20" y="560" />
              <mxPoint x="225" y="560" />
            </Array>
          </mxGeometry>
        </mxCell>
        <mxCell id="bGXl5wLvbpkSmcmILKYW-22" value="&quot;El número es negativo&quot;" style="shape=document;whiteSpace=wrap;html=1;boundedLbl=1;fillColor=#dae8fc;gradientColor=#7ea6e0;strokeColor=#6c8ebf;" parent="1" vertex="1">
          <mxGeometry x="-80" y="440" width="120" height="80" as="geometry" />
        </mxCell>
        <mxCell id="bGXl5wLvbpkSmcmILKYW-28" value="Fin" style="ellipse;whiteSpace=wrap;html=1;fillColor=#d5e8d4;gradientColor=#97d077;strokeColor=#82b366;" parent="1" vertex="1">
          <mxGeometry x="190" y="600" width="70" height="40" as="geometry" />
        </mxCell>
        <mxCell id="bGXl5wLvbpkSmcmILKYW-56" value="" style="edgeStyle=orthogonalEdgeStyle;rounded=0;orthogonalLoop=1;jettySize=auto;html=1;fontSize=12;" parent="1" source="bGXl5wLvbpkSmcmILKYW-50" target="bGXl5wLvbpkSmcmILKYW-55" edge="1">
          <mxGeometry relative="1" as="geometry" />
        </mxCell>
        <mxCell id="bGXl5wLvbpkSmcmILKYW-50" value="Inicio" style="ellipse;whiteSpace=wrap;html=1;fontSize=12;fillColor=#d5e8d4;gradientColor=#97d077;strokeColor=#82b366;" parent="1" vertex="1">
          <mxGeometry x="770" width="60" height="40" as="geometry" />
        </mxCell>
        <mxCell id="bGXl5wLvbpkSmcmILKYW-58" value="" style="edgeStyle=orthogonalEdgeStyle;rounded=0;orthogonalLoop=1;jettySize=auto;html=1;fontSize=12;" parent="1" source="bGXl5wLvbpkSmcmILKYW-55" target="bGXl5wLvbpkSmcmILKYW-57" edge="1">
          <mxGeometry relative="1" as="geometry" />
        </mxCell>
        <mxCell id="bGXl5wLvbpkSmcmILKYW-55" value="total(float)&lt;br&gt;num(float)&lt;br&gt;i(contador)" style="whiteSpace=wrap;html=1;fillColor=#fff2cc;gradientColor=#ffd966;strokeColor=#d6b656;" parent="1" vertex="1">
          <mxGeometry x="750" y="60" width="100" height="60" as="geometry" />
        </mxCell>
        <mxCell id="bGXl5wLvbpkSmcmILKYW-60" value="" style="edgeStyle=orthogonalEdgeStyle;rounded=0;orthogonalLoop=1;jettySize=auto;html=1;fontSize=12;" parent="1" source="bGXl5wLvbpkSmcmILKYW-57" target="bGXl5wLvbpkSmcmILKYW-59" edge="1">
          <mxGeometry relative="1" as="geometry">
            <Array as="points">
              <mxPoint x="910" y="180" />
            </Array>
          </mxGeometry>
        </mxCell>
        <mxCell id="bGXl5wLvbpkSmcmILKYW-73" value="&lt;font style=&quot;font-size: 19px;&quot;&gt;si&lt;/font&gt;" style="edgeLabel;html=1;align=center;verticalAlign=middle;resizable=0;points=[];fontSize=12;" parent="bGXl5wLvbpkSmcmILKYW-60" vertex="1" connectable="0">
          <mxGeometry x="-0.0391" y="2" relative="1" as="geometry">
            <mxPoint x="-32" y="2" as="offset" />
          </mxGeometry>
        </mxCell>
        <mxCell id="bGXl5wLvbpkSmcmILKYW-68" value="" style="edgeStyle=orthogonalEdgeStyle;rounded=0;orthogonalLoop=1;jettySize=auto;html=1;fontSize=12;" parent="1" source="bGXl5wLvbpkSmcmILKYW-57" target="bGXl5wLvbpkSmcmILKYW-67" edge="1">
          <mxGeometry relative="1" as="geometry">
            <Array as="points">
              <mxPoint x="710" y="180" />
            </Array>
          </mxGeometry>
        </mxCell>
        <mxCell id="bGXl5wLvbpkSmcmILKYW-74" value="no" style="edgeLabel;html=1;align=center;verticalAlign=middle;resizable=0;points=[];fontSize=19;" parent="bGXl5wLvbpkSmcmILKYW-68" vertex="1" connectable="0">
          <mxGeometry x="-0.4533" y="1" relative="1" as="geometry">
            <mxPoint x="28" y="-1" as="offset" />
          </mxGeometry>
        </mxCell>
        <mxCell id="bGXl5wLvbpkSmcmILKYW-57" value="i!=10" style="rhombus;whiteSpace=wrap;html=1;fillColor=#e6d0de;gradientColor=#d5739d;strokeColor=#996185;" parent="1" vertex="1">
          <mxGeometry x="760" y="150" width="80" height="60" as="geometry" />
        </mxCell>
        <mxCell id="bGXl5wLvbpkSmcmILKYW-62" value="" style="edgeStyle=orthogonalEdgeStyle;rounded=0;orthogonalLoop=1;jettySize=auto;html=1;fontSize=12;entryX=0.5;entryY=0;entryDx=0;entryDy=0;exitX=0.5;exitY=0.874;exitDx=0;exitDy=0;exitPerimeter=0;" parent="1" source="bGXl5wLvbpkSmcmILKYW-59" target="bGXl5wLvbpkSmcmILKYW-61" edge="1">
          <mxGeometry relative="1" as="geometry">
            <mxPoint x="860" y="280" as="sourcePoint" />
          </mxGeometry>
        </mxCell>
        <mxCell id="bGXl5wLvbpkSmcmILKYW-59" value="&quot;Ingrese número a sumar&quot;" style="shape=document;whiteSpace=wrap;html=1;boundedLbl=1;fillColor=#dae8fc;gradientColor=#7ea6e0;strokeColor=#6c8ebf;" parent="1" vertex="1">
          <mxGeometry x="850" y="200" width="120" height="60" as="geometry" />
        </mxCell>
        <mxCell id="bGXl5wLvbpkSmcmILKYW-64" value="" style="edgeStyle=orthogonalEdgeStyle;rounded=0;orthogonalLoop=1;jettySize=auto;html=1;fontSize=12;" parent="1" source="bGXl5wLvbpkSmcmILKYW-61" target="bGXl5wLvbpkSmcmILKYW-63" edge="1">
          <mxGeometry relative="1" as="geometry" />
        </mxCell>
        <mxCell id="bGXl5wLvbpkSmcmILKYW-61" value="num" style="shape=parallelogram;perimeter=parallelogramPerimeter;whiteSpace=wrap;html=1;fixedSize=1;fillColor=#f8cecc;gradientColor=#ea6b66;strokeColor=#b85450;" parent="1" vertex="1">
          <mxGeometry x="870" y="275" width="80" height="40" as="geometry" />
        </mxCell>
        <mxCell id="bGXl5wLvbpkSmcmILKYW-66" value="" style="edgeStyle=orthogonalEdgeStyle;rounded=0;orthogonalLoop=1;jettySize=auto;html=1;fontSize=12;" parent="1" source="bGXl5wLvbpkSmcmILKYW-63" target="bGXl5wLvbpkSmcmILKYW-65" edge="1">
          <mxGeometry relative="1" as="geometry" />
        </mxCell>
        <mxCell id="bGXl5wLvbpkSmcmILKYW-63" value="total = total + num" style="whiteSpace=wrap;html=1;fillColor=#fff2cc;gradientColor=#ffd966;strokeColor=#d6b656;" parent="1" vertex="1">
          <mxGeometry x="850" y="335" width="120" height="40" as="geometry" />
        </mxCell>
        <mxCell id="bGXl5wLvbpkSmcmILKYW-71" value="" style="edgeStyle=orthogonalEdgeStyle;rounded=0;orthogonalLoop=1;jettySize=auto;html=1;fontSize=12;entryX=0.5;entryY=0;entryDx=0;entryDy=0;" parent="1" source="bGXl5wLvbpkSmcmILKYW-65" target="bGXl5wLvbpkSmcmILKYW-70" edge="1">
          <mxGeometry relative="1" as="geometry">
            <Array as="points">
              <mxPoint x="910" y="440" />
              <mxPoint x="800" y="440" />
            </Array>
          </mxGeometry>
        </mxCell>
        <mxCell id="bGXl5wLvbpkSmcmILKYW-65" value="i = i +1" style="whiteSpace=wrap;html=1;fillColor=#fff2cc;gradientColor=#ffd966;strokeColor=#d6b656;" parent="1" vertex="1">
          <mxGeometry x="880" y="390" width="60" height="40" as="geometry" />
        </mxCell>
        <mxCell id="bGXl5wLvbpkSmcmILKYW-72" style="edgeStyle=orthogonalEdgeStyle;rounded=0;orthogonalLoop=1;jettySize=auto;html=1;entryX=0.5;entryY=0;entryDx=0;entryDy=0;fontSize=12;exitX=0.498;exitY=0.828;exitDx=0;exitDy=0;exitPerimeter=0;" parent="1" source="bGXl5wLvbpkSmcmILKYW-67" target="bGXl5wLvbpkSmcmILKYW-70" edge="1">
          <mxGeometry relative="1" as="geometry">
            <Array as="points">
              <mxPoint x="710" y="440" />
              <mxPoint x="800" y="440" />
            </Array>
          </mxGeometry>
        </mxCell>
        <mxCell id="bGXl5wLvbpkSmcmILKYW-67" value="&quot;La suma es: &quot;, total" style="shape=document;whiteSpace=wrap;html=1;boundedLbl=1;fillColor=#dae8fc;gradientColor=#7ea6e0;strokeColor=#6c8ebf;" parent="1" vertex="1">
          <mxGeometry x="650" y="315" width="120" height="50" as="geometry" />
        </mxCell>
        <mxCell id="bGXl5wLvbpkSmcmILKYW-70" value="fin" style="ellipse;whiteSpace=wrap;html=1;fillColor=#d5e8d4;gradientColor=#97d077;strokeColor=#82b366;" parent="1" vertex="1">
          <mxGeometry x="780" y="460" width="40" height="40" as="geometry" />
        </mxCell>
      </root>
    </mxGraphModel>
  </diagram>
</mxfile>
